<?xml version="1.0" encoding="UTF-8"?>
<svg xmlns="http://www.w3.org/2000/svg" version="1.1" viewBox="0 0 644.08 1237.3">
  <!-- Generator: Adobe Illustrator 29.8.1, SVG Export Plug-In . SVG Version: 2.1.1 Build 2)  -->
  <defs>
    <style>
      .st0 {
        fill: #19c5f4;
      }

      .st1 {
        fill: #70cbce;
      }

      .st2 {
        fill: #2c3166;
      }

      .st3 {
        fill: none;
        stroke: #23dcfc;
        stroke-linecap: round;
        stroke-miterlimit: 10;
        stroke-width: 29px;
      }

      .st4 {
        fill: #3f4179;
      }

      .st5 {
        fill: #62bdc8;
      }

      .st6 {
        fill: #2d336a;
      }

      .st7 {
        fill: #94f1ee;
      }

      .st8 {
        fill: #2e326a;
      }

      .st9 {
        fill: #75fcff;
      }

      .st10 {
        fill: #3f3e79;
      }

      .st11 {
        fill: #2d3268;
      }

      .st12 {
        fill: #32376d;
      }

      .st13 {
        fill: #95f0eb;
      }

      .st14 {
        fill: #373b6f;
      }

      .st15 {
        fill: #e6fcfb;
      }

      .st16 {
        fill: #30346b;
      }

      .st17 {
        fill: #4e4c85;
      }

      .st18 {
        fill: #3d3d75;
      }

      .st19 {
        fill: #25dbf9;
      }

      .st20 {
        fill: #96f1ed;
      }

      .st21 {
        fill: #68c4cc;
      }

      .st22 {
        fill: #3e3e78;
      }

      .st23 {
        fill: #504f87;
      }

      .st24 {
        fill: #4f4d85;
      }

      .st25 {
        fill: #3b3d76;
      }
    </style>
  </defs>
  <g id="Layer_3">
    <ellipse class="st1" cx="319.23" cy="1197.05" rx="275.9" ry="40.26"/>
    <path class="st16" d="M43.54,879.48c21.4-93.33,74.22-152.88,140.59-194.89,40.05,35.41-23.95,121.6-32.72,132.44s-30.45,54.19-41.81,102.19-70.23-21.55-66.06-39.74Z"/>
    <path class="st22" d="M276.79,982.19c-7.74,37.24,1.55,135.82,3.61,156.99s10.32,44.9-9.29,50.58-120.26,25.29-139.35,0,3.61-61.42,38.19-80.52c-1.55-41.29-2.52-75.71,11.13-148.82,57.52-.85,95.71,21.77,95.71,21.77Z"/>
    <path class="st11" d="M177.63,979.92c36.97,10.35,96.13,47.9,96.13,47.9.56-24.38,2.51-25.45,3.03-45.63s-93.28-35.25-95.71-21.77-3.45,19.5-3.45,19.5Z"/>
    <path class="st11" d="M169.85,1106.47c20.81.96,50.23,6.19,63.2,26.71,1.35,4.26.71,11.42-5.84,6.19s-20.1-20.97-57.26-30.13l-.1-2.77Z"/>
    <path class="st17" d="M321.44,665.27c134.75,10.3,137.87-7.96,140.76,186.6,2.41,161.81-131.45,140.29-195.73,136.26-68.13-19.35-148.41-11.61-123.76-199.74,23.11-155.61,103.94-128.83,178.72-123.12Z"/>
    <path class="st8" d="M462.19,860.65c-22.97-36.13-33.34-74.8-30.48-100.37s39.37,15.85,39.37,15.85l-8.9,84.52Z"/>
    <rect class="st19" x="190.61" y="745.35" width="174.6" height="154.48" rx="35.4" ry="35.4" transform="translate(41.03 -12.74) rotate(2.84)"/>
    <rect class="st9" x="207.47" y="763.5" width="133.74" height="112.75" rx="23.62" ry="23.62" transform="translate(40.89 -12.57) rotate(2.84)"/>
    <path class="st16" d="M188.6,680.47c63.55,28.72,166.93,37.91,255.11,12.15-15.72-21.91-13.98-23.75-118.26-28.11s-106.98-7.61-136.85,15.95Z"/>
    <path class="st10" d="M459.41,705.16c25.87,7.32,121.29,85.68,133.68,193.03s-79.48,103.74-84.13,34.58-47.48-130.06-68.65-155.87-11.29-80.34,19.1-71.74Z"/>
    <path class="st21" d="M508.96,932.77c-13.52,30.94-20.1,54.68,2.68,69.39,8.07,4.65,19.68-5.42,19.68-5.42,0,0,3.35,45.09,48.52,33s-31.31-95.45-41.59-90.29-29.28-6.68-29.28-6.68Z"/>
    <path class="st7" d="M573.09,895.35c26.97-1.54,61.42,37.16,54.71,79.48s-37.68,56.77-49.03,54.71-32-13.42-34.06-51.1c0-9.03-5.91,1.35-5.91,1.35-13.7,7.43-22.86,13.19-30.99-7.03-11.15-27.71,2.06-73.81,65.29-77.42Z"/>
    <path class="st21" d="M90.7,895.31c24.22,26.85,40.74,50.08,23.19,81.04-11.35,20.13-36.13,7.23-36.13,7.23,0,0-2.13,20.19-17.71,22.1s-23.23-94.87-7.53-99.52,38.18-10.85,38.18-10.85Z"/>
    <path class="st13" d="M72.7,885.16c26.59,13.9,41.81,19.61,25.81,74.84-5.68,18.06-22.97,2.32-27.35-10.58s-8,.26-8.52,5.16-2.58,51.1-2.58,51.1c0,0-80.77,10.58-54.97-80,17.03-56.52,53.7-47.79,67.61-40.52Z"/>
    <path class="st18" d="M435.56,950.51c11.88,33.7,38.2,164.8,38.2,164.8,25.81,23.23,40.65,42.84,37.87,66.06s-37.87,29.94-68.84,26.84-68.65-7.23-72.77-29.94-5.85-99.5-21.64-187.89c67.06-40.24,87.18-39.88,87.18-39.88Z"/>
    <path class="st2" d="M352.83,1017.26c25.45-33.06,26.99-44.2,82.74-66.76-12.38-11.2-14.45-12.16-27.87-7.55s-58.89,40.35-59.31,47.43l4.44,26.88Z"/>
    <path class="st11" d="M471.69,1110.74c-20.83.21-50.42,4.37-64.12,24.41-1.51,4.21-1.12,11.39,5.61,6.4s20.84-20.23,58.31-28.04l.2-2.76Z"/>
  </g>
  <g id="Layer_2">
    <polygon class="st22" points="324.7 159.31 335.76 76.39 357.73 81.03 355.25 165.68 324.7 159.31"/>
    <path class="st12" d="M286.33,170.95c15.89-7.08,26.34-13.28,56.15-11.73s35.34,9.54,46.32,18.9-112.54,15.01-102.46-7.17Z"/>
    <path class="st23" d="M1,408.63c4.57-39.06,22.71-75.56,51.61-79.69s15.64,168.33-15.15,161.58S-3.12,443.94,1,408.63Z"/>
    <path class="st25" d="M5.05,457.23l41.89-13.19s10.84,44.98,2.32,46.68-34.22,3.69-44.21-33.49Z"/>
    <path class="st5" d="M340.75,171.26c162.47,14.08,277.55,83.61,257.81,307.74s-209.03,211.35-301.94,203.23S15.59,633.46,33,402.36c17.42-231.1,243.74-236.65,307.74-231.1Z"/>
    <path class="st20" d="M340.75,171.26c162.47,14.08,264.5,109.34,260.01,251.1-8.14,257.03-212.53,248.13-305.43,240S15.59,633.46,33,402.36c17.42-231.1,243.74-236.65,307.74-231.1Z"/>
    <path class="st14" d="M322.42,254.36c116.33,10.75,234.02,35.56,213.68,213.68s-157.94,157.66-262.45,149.67-218.25-48.02-200.9-205.41,111.48-170.71,249.68-157.94Z"/>
    <path class="st0" d="M143.97,405.33c8.69-62.41,34.06-73.55,53.42-70.45s47.23,24.77,40.26,75.1-38.71,68.13-51.87,63.48-50.32-6.97-41.81-68.13Z"/>
    <path class="st0" d="M418.04,355.78c32.62,1.72,44.9,35.13,44.13,72.15s-24.77,66.43-55.74,67.21-54.97-43.4-47.23-77.44,29.42-63.46,58.84-61.91Z"/>
    <ellipse class="st15" cx="194.68" cy="391.82" rx="36.1" ry="25.16" transform="translate(-217.72 537.94) rotate(-83.09)"/>
    <ellipse class="st15" cx="412.71" cy="408.63" rx="32.57" ry="27.35" transform="translate(-42.63 769.16) rotate(-83.09)"/>
    <path class="st24" d="M600.9,388.94c19.49,3.16,51.2,22.19,41.4,93.42s-32.21,77.86-46.45,76.9-36.65-23.23-28.9-92.39,27.09-79.05,33.96-77.94Z"/>
    <path class="st4" d="M565.86,506.71l45.98-5.76s17.58,36.62,11.16,43.95c-2.38,11.28-48.42,42.93-57.14-38.19Z"/>
    <path class="st6" d="M603.07,476.43c3.87-37.94,12.7-62.96,25.12-72.13,12.99,16.09,18.8,33.89,14.48,75.19-5.81,55.57-26.22,73.99-26.22,73.99-16.96-20.3-13.38-77.05-13.38-77.05Z"/>
    <circle class="st22" cx="353.14" cy="48.44" r="48.44"/>
    <path class="st3" d="M242.47,517.94c17.55,16.52,56.26,39.23,96,8.26"/>
  </g>
</svg>